<mxfile host="app.diagrams.net" modified="2022-11-03T16:37:12.987Z" agent="5.0 (Windows NT 10.0; Win64; x64) AppleWebKit/537.36 (KHTML, like Gecko) Chrome/107.0.0.0 Safari/537.36" etag="UGdX0R4mts3RtrUOv_Z2" version="20.5.1" type="github">
  <diagram id="Z_isAmxPyYDPvPfBriaF" name="Page-1">
    <mxGraphModel dx="3768" dy="2424" grid="1" gridSize="10" guides="1" tooltips="1" connect="1" arrows="1" fold="1" page="1" pageScale="1" pageWidth="827" pageHeight="1169" math="0" shadow="0">
      <root>
        <mxCell id="0" />
        <mxCell id="1" parent="0" />
        <mxCell id="cteyw57EZUwjN1r9_n_c-1" value="User" style="shape=umlActor;verticalLabelPosition=bottom;verticalAlign=top;html=1;outlineConnect=0;" vertex="1" parent="1">
          <mxGeometry x="124" y="715" width="30" height="60" as="geometry" />
        </mxCell>
        <mxCell id="cteyw57EZUwjN1r9_n_c-2" value="System Administrator" style="shape=umlActor;verticalLabelPosition=bottom;verticalAlign=top;html=1;outlineConnect=0;" vertex="1" parent="1">
          <mxGeometry x="124" y="520" width="30" height="60" as="geometry" />
        </mxCell>
        <mxCell id="cteyw57EZUwjN1r9_n_c-15" style="edgeStyle=orthogonalEdgeStyle;rounded=0;orthogonalLoop=1;jettySize=auto;html=1;exitX=0.5;exitY=1;exitDx=0;exitDy=0;exitPerimeter=0;entryX=0;entryY=0.5;entryDx=0;entryDy=0;" edge="1" parent="1" source="cteyw57EZUwjN1r9_n_c-4" target="cteyw57EZUwjN1r9_n_c-5">
          <mxGeometry relative="1" as="geometry" />
        </mxCell>
        <mxCell id="cteyw57EZUwjN1r9_n_c-4" value="Database" style="strokeWidth=2;html=1;shape=mxgraph.flowchart.direct_data;whiteSpace=wrap;rotation=-90;" vertex="1" parent="1">
          <mxGeometry x="89" y="340" width="100" height="60" as="geometry" />
        </mxCell>
        <mxCell id="cteyw57EZUwjN1r9_n_c-16" style="edgeStyle=orthogonalEdgeStyle;rounded=0;orthogonalLoop=1;jettySize=auto;html=1;exitX=1;exitY=0.5;exitDx=0;exitDy=0;entryX=0;entryY=0.5;entryDx=0;entryDy=0;" edge="1" parent="1" source="cteyw57EZUwjN1r9_n_c-5" target="cteyw57EZUwjN1r9_n_c-6">
          <mxGeometry relative="1" as="geometry" />
        </mxCell>
        <mxCell id="cteyw57EZUwjN1r9_n_c-5" value="Data Processing" style="ellipse;whiteSpace=wrap;html=1;" vertex="1" parent="1">
          <mxGeometry x="319" y="260" width="120" height="80" as="geometry" />
        </mxCell>
        <mxCell id="cteyw57EZUwjN1r9_n_c-17" style="edgeStyle=orthogonalEdgeStyle;rounded=0;orthogonalLoop=1;jettySize=auto;html=1;exitX=0;exitY=1;exitDx=0;exitDy=0;entryX=0.5;entryY=0;entryDx=0;entryDy=0;" edge="1" parent="1" source="cteyw57EZUwjN1r9_n_c-6" target="cteyw57EZUwjN1r9_n_c-7">
          <mxGeometry relative="1" as="geometry" />
        </mxCell>
        <mxCell id="cteyw57EZUwjN1r9_n_c-18" style="edgeStyle=orthogonalEdgeStyle;rounded=0;orthogonalLoop=1;jettySize=auto;html=1;exitX=1;exitY=1;exitDx=0;exitDy=0;entryX=0.5;entryY=0;entryDx=0;entryDy=0;" edge="1" parent="1" source="cteyw57EZUwjN1r9_n_c-6" target="cteyw57EZUwjN1r9_n_c-8">
          <mxGeometry relative="1" as="geometry" />
        </mxCell>
        <mxCell id="cteyw57EZUwjN1r9_n_c-6" value="Data Generator" style="ellipse;whiteSpace=wrap;html=1;" vertex="1" parent="1">
          <mxGeometry x="529" y="260" width="120" height="80" as="geometry" />
        </mxCell>
        <mxCell id="cteyw57EZUwjN1r9_n_c-19" style="edgeStyle=orthogonalEdgeStyle;rounded=0;orthogonalLoop=1;jettySize=auto;html=1;exitX=1;exitY=1;exitDx=0;exitDy=0;entryX=0.5;entryY=0;entryDx=0;entryDy=0;" edge="1" parent="1" source="cteyw57EZUwjN1r9_n_c-7" target="cteyw57EZUwjN1r9_n_c-10">
          <mxGeometry relative="1" as="geometry" />
        </mxCell>
        <mxCell id="cteyw57EZUwjN1r9_n_c-7" value="Train-Data" style="ellipse;whiteSpace=wrap;html=1;" vertex="1" parent="1">
          <mxGeometry x="439" y="390" width="120" height="80" as="geometry" />
        </mxCell>
        <mxCell id="cteyw57EZUwjN1r9_n_c-8" value="Test-Data" style="ellipse;whiteSpace=wrap;html=1;" vertex="1" parent="1">
          <mxGeometry x="619" y="390" width="120" height="80" as="geometry" />
        </mxCell>
        <mxCell id="cteyw57EZUwjN1r9_n_c-20" style="edgeStyle=orthogonalEdgeStyle;rounded=0;orthogonalLoop=1;jettySize=auto;html=1;exitX=1;exitY=0.5;exitDx=0;exitDy=0;entryX=0;entryY=0.5;entryDx=0;entryDy=0;" edge="1" parent="1" source="cteyw57EZUwjN1r9_n_c-9" target="cteyw57EZUwjN1r9_n_c-10">
          <mxGeometry relative="1" as="geometry" />
        </mxCell>
        <mxCell id="cteyw57EZUwjN1r9_n_c-9" value="Optimizer" style="ellipse;whiteSpace=wrap;html=1;" vertex="1" parent="1">
          <mxGeometry x="404" y="520" width="120" height="80" as="geometry" />
        </mxCell>
        <mxCell id="cteyw57EZUwjN1r9_n_c-27" style="edgeStyle=orthogonalEdgeStyle;rounded=0;orthogonalLoop=1;jettySize=auto;html=1;exitX=0.5;exitY=1;exitDx=0;exitDy=0;entryX=0.5;entryY=0;entryDx=0;entryDy=0;" edge="1" parent="1" source="cteyw57EZUwjN1r9_n_c-10" target="cteyw57EZUwjN1r9_n_c-12">
          <mxGeometry relative="1" as="geometry" />
        </mxCell>
        <mxCell id="cteyw57EZUwjN1r9_n_c-10" value="Model Layers" style="ellipse;whiteSpace=wrap;html=1;" vertex="1" parent="1">
          <mxGeometry x="554" y="520" width="120" height="80" as="geometry" />
        </mxCell>
        <mxCell id="cteyw57EZUwjN1r9_n_c-21" style="edgeStyle=orthogonalEdgeStyle;rounded=0;orthogonalLoop=1;jettySize=auto;html=1;exitX=0;exitY=0.5;exitDx=0;exitDy=0;entryX=1;entryY=0.5;entryDx=0;entryDy=0;" edge="1" parent="1" target="cteyw57EZUwjN1r9_n_c-10">
          <mxGeometry relative="1" as="geometry">
            <mxPoint x="694" y="560" as="sourcePoint" />
          </mxGeometry>
        </mxCell>
        <mxCell id="cteyw57EZUwjN1r9_n_c-11" value="Feature Extraction" style="ellipse;whiteSpace=wrap;html=1;" vertex="1" parent="1">
          <mxGeometry x="656" y="630" width="120" height="80" as="geometry" />
        </mxCell>
        <mxCell id="cteyw57EZUwjN1r9_n_c-23" style="edgeStyle=orthogonalEdgeStyle;rounded=0;orthogonalLoop=1;jettySize=auto;html=1;exitX=0.5;exitY=1;exitDx=0;exitDy=0;" edge="1" parent="1" source="cteyw57EZUwjN1r9_n_c-12" target="cteyw57EZUwjN1r9_n_c-13">
          <mxGeometry relative="1" as="geometry" />
        </mxCell>
        <mxCell id="cteyw57EZUwjN1r9_n_c-24" style="edgeStyle=orthogonalEdgeStyle;rounded=0;orthogonalLoop=1;jettySize=auto;html=1;exitX=0;exitY=0.5;exitDx=0;exitDy=0;" edge="1" parent="1" source="cteyw57EZUwjN1r9_n_c-12" target="cteyw57EZUwjN1r9_n_c-14">
          <mxGeometry relative="1" as="geometry" />
        </mxCell>
        <mxCell id="cteyw57EZUwjN1r9_n_c-12" value="Trained Model&lt;span style=&quot;color: rgba(0, 0, 0, 0); font-family: monospace; font-size: 0px; text-align: start;&quot;&gt;%3CmxGraphModel%3E%3Croot%3E%3CmxCell%20id%3D%220%22%2F%3E%3CmxCell%20id%3D%221%22%20parent%3D%220%22%2F%3E%3CmxCell%20id%3D%222%22%20value%3D%22train-data%22%20style%3D%22ellipse%3BwhiteSpace%3Dwrap%3Bhtml%3D1%3B%22%20vertex%3D%221%22%20parent%3D%221%22%3E%3CmxGeometry%20x%3D%22370%22%20y%3D%22290%22%20width%3D%22120%22%20height%3D%2280%22%20as%3D%22geometry%22%2F%3E%3C%2FmxCell%3E%3C%2Froot%3E%3C%2FmxGraphModel%3E&lt;/span&gt;" style="ellipse;whiteSpace=wrap;html=1;" vertex="1" parent="1">
          <mxGeometry x="554" y="705" width="120" height="80" as="geometry" />
        </mxCell>
        <mxCell id="cteyw57EZUwjN1r9_n_c-13" value="Metrics" style="ellipse;whiteSpace=wrap;html=1;" vertex="1" parent="1">
          <mxGeometry x="554" y="830" width="120" height="80" as="geometry" />
        </mxCell>
        <mxCell id="cteyw57EZUwjN1r9_n_c-25" style="edgeStyle=orthogonalEdgeStyle;rounded=0;orthogonalLoop=1;jettySize=auto;html=1;exitX=0;exitY=0.5;exitDx=0;exitDy=0;entryX=0.5;entryY=0.5;entryDx=0;entryDy=0;entryPerimeter=0;" edge="1" parent="1" source="cteyw57EZUwjN1r9_n_c-14" target="cteyw57EZUwjN1r9_n_c-1">
          <mxGeometry relative="1" as="geometry" />
        </mxCell>
        <mxCell id="cteyw57EZUwjN1r9_n_c-14" value="Cloud-Mobile App" style="ellipse;whiteSpace=wrap;html=1;" vertex="1" parent="1">
          <mxGeometry x="284" y="705" width="120" height="80" as="geometry" />
        </mxCell>
      </root>
    </mxGraphModel>
  </diagram>
</mxfile>
